<svg width="450" height="318"><polygon fill-opacity="0.8" fill="#3498DB" stroke="#000000" stroke-width="1"  points="188,168 187,169 188,169 189,168 190,169 191,169 192,169 193,169 193,169 194,168 194,168 194,168 194,167 195,167 195,167 195,166 196,165 196,165 196,165 198,165 198,165 202,165 205,164 207,164 208,164 208,163 209,163 209,163 210,163 211,163 212,163 213,163 214,163 216,164 217,164 218,164 219,164 219,164 220,164 221,164 221,164 221,164 222,165 223,165 223,167 222,167 222,168 222,168 223,168 223,168 224,168 224,168 225,169 225,169 225,169 224,171 224,171 225,171 226,171 227,171 227,172 227,172 227,173 228,173 228,173 228,173 229,173 229,174 229,174 229,174 229,175 230,175 230,176 231,176 232,176 232,176 232,176 230,175 230,174 231,174 232,175 233,175 233,176 233,177 232,178 232,178 231,178 229,179 228,179 228,179 227,180 226,180 226,181 226,181 226,181 226,182 227,182 227,182 227,182 227,181 228,181 228,181 229,180 230,180 231,180 231,179 232,180 232,180 233,180 236,179 236,180 237,180 237,180 237,180 237,180 237,181 238,181 238,182 238,182 239,182 239,183 239,184 239,184 240,185 240,185 240,185 240,186 240,186 240,186 240,186 240,187 239,187 240,187 240,188 239,188 239,188 239,189 239,189 239,189 238,189 238,189 238,189 237,189 237,188 237,188 236,188 236,188 236,187 236,187 237,186 237,186 237,185 237,184 236,184 234,183 233,183 233,182 233,183 233,183 233,183 232,183 232,184 233,184 233,184 233,184 233,184 234,184 235,184 234,184 234,184 233,185 234,185 234,185 234,186 234,186 235,186 235,186 235,186 235,186 235,186 234,188 234,188 233,189 232,189 233,189 235,188 236,188 237,189 237,190 237,191 236,191 235,192 235,192 235,192 235,192 234,192 234,193 234,193 234,193 234,192 233,192 231,192 230,192 229,192 228,192 228,193 228,193 228,194 228,194 228,195 227,195 227,196 227,196 226,197 225,197 224,198 223,198 223,198 222,198 221,198 221,198 221,198 221,198 221,198 219,197 219,197 218,197 218,196 217,196 216,196 216,196 216,196 215,196 215,196 214,196 214,196 214,196 214,196 213,196 213,197 213,197 213,197 213,197 213,197 212,198 211,198 211,198 211,198 211,197 211,197 211,197 210,197 207,198 207,198 207,198 207,198 206,198 206,198 206,198 206,198 205,198 205,198 204,197 205,197 205,196 204,196 205,195 205,195 205,194 205,194 205,194 204,194 204,194 203,194 203,194 203,194 203,194 202,194 202,194 201,193 200,193 200,193 200,192 200,192 199,192 199,192 198,191 199,191 199,191 199,190 199,190 198,189 198,189 198,189 197,189 197,189 197,188 195,188 194,187 193,187 192,188 191,189 190,190 190,190 189,189 189,190 189,190 189,190 189,190 189,190 189,190 189,190 189,190 189,190 189,190 189,190 189,190 189,191 190,191 189,191 190,192 190,192 190,193 190,193 188,193 188,193 187,194 187,194 187,194 187,194 188,194 188,194 187,195 187,195 187,195 187,195 187,196 186,196 186,196 186,195 186,195 186,195 186,195 186,194 185,195 185,195 185,195 186,196 186,196 185,196 184,196 183,196 183,196 183,196 183,195 183,195 182,195 182,195 183,195 182,195 181,196 180,196 177,195 177,195 177,195 177,195 176,194 174,193 174,193 172,193 170,193 170,193 169,193 169,191 169,191 169,191 168,191 167,191 167,191 167,190 166,190 166,189 165,189 164,189 163,188 162,187 161,187 161,187 161,186 161,186 161,186 161,186 161,186 163,185 164,185 164,185 164,185 164,184 165,184 166,183 168,184 169,184 170,184 173,182 174,182 174,182 174,181 174,181 173,181 173,181 172,181 171,181 171,181 171,181 170,181 170,181 170,181 170,180 169,180 169,180 168,180 168,180 168,179 168,179 168,179 169,179 170,178 171,178 171,178 172,179 173,179 174,178 175,178 176,178 177,178 178,178 178,178 179,178 179,178 179,178 179,178 179,177 179,177 179,176 181,175 181,174 182,174 182,173 182,173 182,172 182,172 183,172 183,172 183,172 183,171 183,171 183,170 183,170 183,170 183,170 184,169 184,169 184,169 186,169 186,169 187,168 187,168 188,168" style="fill:gray;stroke:white;stroke-width:2"/><polygon fill-opacity="0.8" fill="#3498DB" stroke="#000000" stroke-width="1"  points="321,269 320,269 319,270 318,270 317,270 316,270 315,271 313,271 312,271 312,271 312,270 312,270 312,270 311,271 311,271 309,272 309,272 309,272 308,272 307,273 307,273 307,273 307,273 307,273 306,273 306,273 306,273 306,274 306,275 306,275 305,275 305,275 303,275 295,275 295,275 294,274 294,274 292,273 291,273 291,273 290,273 290,272 289,272 289,272 289,272 289,272 290,272 289,271 289,271 289,271 289,270 288,270 288,270 288,269 287,269 287,269 287,269 286,268 285,269 283,269 283,269 282,269 282,269 282,269 282,270 283,270 283,270 282,270 282,270 281,270 281,270 281,270 281,270 281,270 281,270 280,270 280,270 280,270 280,270 280,270 280,270 279,270 279,270 278,270 278,270 277,271 277,271 277,271 277,271 276,271 276,271 276,271 274,270 274,270 274,270 273,270 273,270 274,270 274,269 274,269 274,269 275,268 275,268 275,268 275,268 275,268 275,268 275,268 275,268 276,268 277,268 278,268 279,268 280,267 280,267 280,267 280,267 280,267 280,267 279,267 279,267 278,267 276,267 276,267 273,267 273,267 272,266 271,266 271,265 272,266 273,266 273,265 272,265 272,265 271,265 271,265 271,265 271,264 272,264 272,264 271,264 271,264 271,264 271,264 271,264 270,264 270,264 270,264 270,264 269,264 269,264 269,265 270,265 269,265 268,265 265,265 264,265 263,265 263,265 262,266 262,266 262,266 262,267 262,267 262,267 261,268 261,268 261,267 260,268 260,268 257,268 257,268 256,268 256,268 256,269 256,269 255,269 255,269 255,269 255,269 254,269 252,269 252,268 252,268 251,267 250,267 249,267 250,267 252,267 252,267 252,267 252,266 252,266 253,267 253,267 254,267 255,266 256,266 257,266 257,266 257,266 257,266 257,265 256,264 257,264 258,264 258,263 258,264 257,264 255,264 255,264 255,264 256,264 256,264 256,265 256,265 256,265 256,266 253,266 253,266 249,266 248,266 248,266 248,267 248,267 248,266 248,266 246,265 246,265 246,265 247,265 247,265 247,265 248,264 249,264 249,264 250,264 250,264 250,263 250,262 250,262 249,262 249,261 249,262 248,261 247,261 246,261 246,261 244,261 244,261 244,261 244,261 244,261 244,261 244,261 244,261 244,261 244,260 244,260 245,260 246,260 246,260 247,259 247,259 248,259 249,259 250,258 250,257 251,257 251,257 251,257 251,257 251,257 251,257 252,257 253,257 254,257 255,257 255,257 255,257 256,257 257,257 258,257 258,257 258,257 258,256 258,256 258,256 259,256 259,256 260,255 261,255 261,254 261,254 262,255 262,254 263,253 267,254 267,253 268,253 268,253 268,253 269,253 269,253 270,252 271,252 271,251 272,251 272,251 273,251 276,249 278,248 279,247 279,246 280,245 280,244 280,244 280,243 280,243 280,243 280,242 280,242 281,242 281,242 282,242 282,242 284,242 284,241 283,241 281,242 280,242 280,241 279,240 278,240 278,239 279,238 280,238 280,238 280,238 280,237 280,237 281,237 281,237 282,236 282,236 282,236 281,236 281,236 278,235 278,234 278,234 278,234 278,234 279,233 279,233 278,232 278,232 278,232 278,232 278,232 280,231 280,231 280,231 280,231 279,231 279,231 279,231 279,231 278,231 277,231 275,231 273,231 273,231 272,232 270,232 270,232 269,232 268,233 268,233 268,233 268,233 267,233 267,234 268,234 267,234 267,234 267,235 267,234 266,234 266,234 265,234 265,234 264,234 264,234 264,234 264,234 263,234 262,234 261,234 261,235 260,235 260,235 260,234 260,234 260,234 260,234 261,233 265,230 265,230 266,230 266,230 267,230 269,229 270,228 272,228 272,227 272,227 272,225 272,225 272,225 273,225 273,225 273,225 273,225 273,225 273,225 274,224 275,224 275,224 276,223 276,223 277,222 278,222 278,222 279,222 280,222 280,222 280,222 280,222 281,221 282,221 283,221 286,220 287,220 287,219 286,219 286,219 286,219 287,219 287,219 288,219 288,219 289,219 289,219 290,220 290,220 294,220 295,220 300,218 302,218 303,218 303,219 304,219 304,219 308,221 308,221 308,221 309,222 309,221 309,221 309,220 308,220 308,220 307,219 306,218 306,217 306,217 306,217 307,216 308,216 308,216 309,216 310,216 311,216 313,219 313,219 314,220 315,220 315,220 316,220 316,220 316,220 316,220 316,220 317,220 317,220 317,220 318,220 318,219 318,219 318,219 319,219 319,218 319,218 319,218 320,218 320,218 319,218 318,218 318,218 317,219 317,219 317,219 316,219 314,219 313,218 312,218 312,217 308,213 308,212 308,212 309,211 311,209 312,208 312,208 313,208 314,207 314,207 312,207 311,207 310,206 310,205 310,203 309,202 310,202 311,201 313,201 314,201 314,201 314,201 314,201 315,201 315,200 315,200 315,200 315,200 316,199 316,199 316,199 315,199 314,199 314,199 314,199 314,198 314,198 314,198 314,198 315,197 315,197 316,197 317,196 317,196 317,195 316,194 315,194 315,194 316,193 317,193 317,193 317,192 317,192 317,192 316,193 315,193 314,194 314,194 314,194 313,195 313,195 312,195 311,195 311,194 311,194 311,193 311,193 310,193 310,193 310,193 310,193 310,194 310,194 309,194 309,195 309,195 308,196 308,196 307,196 307,197 307,197 307,197 306,197 306,196 305,196 305,196 304,196 304,196 304,196 304,195 304,195 304,194 304,194 305,194 305,193 305,192 305,192 305,192 304,192 304,193 304,193 304,194 303,193 303,194 302,194 302,193 301,192 300,192 299,191 299,191 299,191 299,190 299,190 299,190 299,189 299,189 298,189 297,188 297,187 294,185 293,185 293,185 293,185 293,184 293,184 293,184 293,184 294,183 295,181 296,179 296,179 296,178 297,178 297,178 298,178 298,178 298,177 299,177 298,176 299,174 300,174 301,173 301,173 301,173 302,173 302,174 303,173 304,173 303,173 302,173 303,172 303,172 305,172 305,172 306,172 306,172 306,172 307,172 308,172 310,172 311,172 309,172 309,171 309,171 310,171 310,171 311,171 311,171 310,171 310,171 307,171 298,171 297,171 297,170 297,170 296,171 296,171 296,171 296,171 296,171 296,171 295,171 295,170 294,171 294,171 295,172 295,173 295,173 294,174 294,174 291,174 290,174 290,174 288,174 288,174 288,174 288,174 288,174 287,174 287,174 287,174 287,174 287,174 288,174 288,174 287,174 287,174 287,174 287,174 287,174 287,174 287,175 286,175 287,175 287,175 285,176 283,177 282,177 281,177 281,177 281,177 281,177 280,177 280,177 281,176 281,176 281,176 281,176 281,176 281,175 280,175 280,175 280,175 279,176 279,176 280,177 278,177 277,176 276,175 276,174 276,174 275,175 275,175 274,175 272,174 272,174 271,174 271,173 271,173 271,173 270,173 270,173 270,173 270,174 270,174 270,175 270,175 270,175 271,175 271,175 272,176 272,176 272,176 272,177 272,177 272,177 272,178 272,178 272,179 272,179 272,179 271,179 271,179 271,179 270,179 270,179 269,179 269,179 268,179 267,179 266,177 265,177 261,175 260,175 259,175 259,174 258,174 257,174 256,174 256,175 255,175 255,175 254,176 254,176 254,176 254,176 254,176 254,177 255,177 255,177 255,177 256,178 256,179 257,179 257,179 257,180 257,180 257,180 257,181 256,181 255,180 255,180 254,180 254,180 254,179 254,179 254,179 254,179 254,178 254,178 254,178 253,178 253,178 253,178 253,177 253,177 253,177 252,177 249,175 248,174 248,173 248,172 248,170 248,170 248,170 249,170 249,170 249,170 250,169 250,169 250,170 250,170 251,170 251,171 251,171 251,171 251,172 251,172 252,173 252,173 253,173 253,173 253,172 253,172 253,172 252,171 252,171 252,170 252,170 252,170 251,169 251,169 252,169 252,168 252,168 252,167 252,167 253,166 253,166 254,165 256,164 257,164 257,164 257,164 257,163 257,163 258,162 258,162 258,162 258,161 258,161 258,161 259,160 259,160 260,159 260,159 260,158 260,158 261,158 263,157 264,157 264,156 264,155 263,155 262,154 263,154 263,154 263,153 262,153 261,152 259,152 259,152 258,152 258,151 258,151 257,151 256,150 255,150 257,149 257,148 257,147 257,147 256,147 256,146 256,145 256,145 256,144 256,143 257,143 257,143 258,142 259,142 259,142 261,143 262,143 262,143 262,143 267,143 268,143 265,143 264,143 262,142 261,141 260,141 259,141 259,140 258,140 258,139 258,139 258,139 257,139 257,139 258,140 259,141 259,141 259,142 259,142 258,142 257,141 257,141 257,140 257,139 257,139 258,137 260,136 260,135 260,135 260,135 259,136 258,137 257,138 257,138 256,138 256,137 256,136 256,136 256,136 255,136 256,137 256,138 256,139 256,139 256,139 256,140 256,140 256,141 256,141 256,141 256,142 255,141 255,141 254,141 254,141 255,141 255,142 255,142 255,142 255,143 255,143 255,143 254,143 254,144 254,144 254,144 254,145 253,145 253,145 252,145 252,144 251,144 251,143 251,142 250,141 250,141 249,141 249,141 249,141 250,143 251,144 250,144 250,144 248,143 248,143 248,142 247,142 247,143 247,143 247,143 247,143 246,144 247,145 247,145 247,146 247,146 245,146 244,145 244,145 244,144 244,144 243,144 243,144 243,144 243,144 243,143 243,143 243,143 244,142 243,142 243,141 244,141 247,138 249,137 250,137 250,137 251,135 252,135 253,134 254,134 255,134 255,133 255,133 254,134 253,134 252,134 251,134 251,134 251,135 250,136 250,136 246,137 244,139 244,139 243,140 243,140 243,140 243,140 243,141 242,140 242,141 242,141 241,141 240,141 240,141 240,140 240,140 240,140 240,140 240,141 240,141 240,142 240,142 240,143 240,143 241,143 241,144 241,144 241,144 241,144 241,144 241,144 241,145 241,145 242,145 241,145 241,145 241,145 243,146 243,147 244,147 243,148 243,148 242,148 242,148 240,149 240,149 240,150 240,150 239,150 239,151 239,151 239,151 239,152 239,152 239,152 239,152 239,153 239,153 240,153 240,153 239,153 239,154 239,154 238,155 238,155 238,155 238,156 238,156 238,156 238,156 238,156 237,157 237,158 236,158 236,158 236,158 237,158 237,158 237,158 238,159 238,159 238,159 238,160 237,161 236,161 236,161 235,161 234,161 234,161 233,161 233,161 233,161 232,161 232,162 231,162 230,161 230,161 230,160 230,159 230,159 231,158 232,157 232,157 232,157 232,156 232,155 232,154 232,154 232,154 232,154 232,153 233,153 233,152 233,151 233,151 235,150 235,149 235,149 236,149 236,148 236,148 237,148 238,147 239,146 240,146 237,147 236,148 235,148 235,148 235,148 235,147 234,147 234,147 234,147 233,146 233,146 235,145 235,144 235,144 235,144 236,143 236,143 236,143 235,144 234,144 233,144 233,144 233,144 233,144 233,144 236,141 236,140 236,140 236,140 236,140 236,140 236,140 235,140 235,140 235,141 233,142 233,142 233,143 233,143 232,143 232,143 232,143 233,142 233,142 234,140 236,139 236,139 236,138 236,138 236,138 237,138 237,138 237,138 237,138 237,138 237,139 237,139 238,138 237,138 237,138 237,138 237,138 237,138 237,137 237,137 238,136 238,136 238,136 237,136 237,136 236,137 235,137 235,136 236,136 236,135 237,135 237,134 237,134 238,134 238,134 239,134 239,134 238,133 238,133 237,133 237,134 236,134 236,134 236,134 236,134 236,133 236,133 236,132 237,131 237,131 238,131 238,131 240,131 240,130 239,130 238,131 237,131 238,130 238,129 238,129 239,129 239,129 239,129 240,128 241,128 244,128 246,128 247,128 248,128 249,126 250,125 251,125 250,125 250,125 250,126 249,126 248,127 247,127 247,128 246,128 243,127 242,128 241,128 241,126 241,127 240,127 240,127 239,127 240,126 240,125 241,126 242,126 243,126 243,126 244,125 245,125 246,125 246,125 245,125 245,125 244,125 244,125 243,125 243,125 242,126 242,126 242,126 241,125 241,125 241,125 241,125 241,125 241,125 242,125 242,124 242,124 242,123 243,123 244,123 244,122 244,122 244,122 244,122 244,122 245,121 245,121 246,121 247,121 247,121 248,121 249,121 250,121 253,120 253,120 248,121 246,120 246,120 246,120 246,120 248,118 249,118 249,117 248,118 247,118 247,119 247,119 247,119 246,119 246,119 246,119 246,119 246,120 246,120 245,120 245,120 244,120 244,121 244,121 243,121 243,121 242,121 242,122 241,122 241,122 240,122 240,123 240,123 239,123 239,123 239,123 237,124 235,126 234,127 233,127 233,127 233,126 232,126 232,126 231,126 231,126 231,125 231,125 231,125 231,124 231,124 230,125 228,125 224,123 224,123 224,122 224,122 224,122 226,122 227,122 228,122 229,123 229,123 228,122 228,122 228,122 231,121 232,121 233,121 234,121 236,121 237,121 237,121 234,121 234,121 232,120 231,120 228,121 227,121 227,121 226,121 226,121 225,121 223,121 221,121 220,121 220,121 219,121 218,121 218,121 217,121 217,121 217,121 217,120 217,120 217,120 217,120 217,120 218,120 218,119 219,119 223,119 223,119 224,118 225,118 225,118 226,118 226,119 226,119 228,119 228,119 228,119 228,119 228,119 227,118 227,118 228,118 228,118 228,118 229,118 229,118 230,118 230,118 231,118 229,118 228,117 228,117 229,117 232,117 233,116 234,116 233,116 233,116 232,116 232,116 231,116 230,116 230,116 232,115 230,115 227,115 226,115 227,115 228,115 228,115 228,115 227,114 228,114 228,113 228,113 229,112 229,112 230,111 231,111 232,111 232,111 233,112 233,112 233,112 234,113 235,113 236,112 238,112 238,112 237,112 237,112 236,112 236,112 235,112 235,112 234,112 233,112 233,112 233,111 233,111 233,111 232,111 232,111 231,111 231,111 231,111 230,110 230,110 230,110 232,109 232,109 232,108 232,108 233,109 234,108 234,108 235,108 236,109 237,109 240,109 240,109 240,109 240,109 241,109 241,109 241,109 241,109 241,108 238,109 238,109 237,109 237,109 236,108 236,108 233,108 233,107 233,107 234,106 235,106 234,105 235,105 236,104 237,104 238,104 239,105 240,105 241,105 241,105 240,105 240,105 239,104 239,104 239,104 238,104 239,103 239,103 240,103 240,103 239,103 239,103 239,103 238,103 238,103 237,104 236,104 235,104 234,104 234,104 233,104 232,104 232,103 232,103 233,102 233,102 233,102 234,102 234,102 234,102 234,102 234,102 235,102 238,101 240,101 240,100 239,100 239,100 237,101 237,101 236,101 235,101 234,101 235,101 235,101 235,100 235,100 235,100 235,100 234,100 232,102 232,102 230,102 229,102 229,101 229,101 229,100 229,100 229,100 229,100 229,100 229,100 229,100 229,99 229,99 229,99 228,99 228,99 228,98 228,98 228,98 228,97 228,97 228,97 228,96 228,96 228,96 229,96 229,96 229,95 229,95 229,95 230,95 230,95 232,96 232,96 232,96 233,97 233,97 234,97 234,97 234,97 234,97 234,97 234,97 236,96 237,96 238,96 238,96 237,96 236,96 235,96 234,96 233,96 233,95 233,95 232,95 232,95 231,94 231,94 230,93 230,93 229,93 229,93 230,93 230,92 230,92 230,92 231,91 232,91 232,92 233,92 233,92 233,91 233,91 233,91 233,91 232,91 232,91 230,90 229,90 230,89 230,89 230,89 229,88 229,88 229,87 230,87 230,87 230,87 231,87 232,87 233,87 233,87 233,87 233,88 234,88 234,89 234,89 234,89 235,90 235,90 235,89 235,89 235,89 235,89 235,89 236,89 236,89 236,88 236,88 236,87 234,87 234,86 234,86 234,86 234,86 234,86 234,86 235,85 235,85 236,85 236,85 237,85 237,86 238,87 239,87 240,87 240,87 240,87 240,86 240,86 241,86 242,86 243,86 243,87 244,87 246,87 246,87 246,87 245,87 244,86 242,85 242,85 241,85 241,85 241,85 242,85 242,85 242,85 242,85 242,85 243,85 244,85 244,86 245,86 245,85 245,85 246,85 247,86 247,86 247,86 248,86 249,87 250,88 251,88 251,88 251,87 250,87 250,87 250,87 247,85 246,85 246,85 247,85 247,85 247,84 247,84 247,84 246,84 245,84 244,83 243,83 242,83 243,82 243,82 243,82 242,82 242,82 240,82 241,82 241,82 241,82 241,82 241,81 240,80 240,80 242,80 242,81 243,81 244,81 244,81 245,80 245,80 245,80 245,80 245,80 244,79 245,79 245,79 244,79 245,79 246,79 246,79 246,78 245,78 244,78 244,78 244,78 244,78 244,78 244,78 243,78 243,77 243,77 244,77 243,77 243,77 242,76 242,75 242,75 243,75 244,76 244,76 245,76 246,75 247,75 247,75 248,76 248,75 249,75 249,75 249,75 250,75 251,75 251,76 252,76 253,76 255,76 255,76 254,76 253,76 254,75 255,75 255,75 253,75 253,75 252,75 252,75 252,75 251,75 251,75 251,75 250,75 249,74 249,74 249,74 248,73 248,73 248,73 248,73 248,73 248,73 248,72 248,72 248,72 249,71 249,71 249,71 249,71 249,71 249,71 249,71 250,71 251,72 252,72 252,71 251,71 251,71 251,71 251,71 251,71 250,71 250,71 250,71 250,71 250,71 250,70 250,70 250,70 250,70 251,70 252,70 253,70 250,69 250,68 250,68 250,68 252,67 252,67 252,67 252,67 252,66 253,65 253,65 253,65 257,65 258,65 258,66 258,66 258,66 259,67 259,67 259,67 259,67 258,67 258,68 259,67 259,67 259,67 259,67 259,66 259,66 260,66 259,65 260,65 261,66 261,66 262,67 263,67 263,67 263,67 263,67 263,67 262,68 261,68 261,69 260,69 260,70 260,70 262,69 262,69 263,68 263,68 264,68 264,68 265,67 265,67 265,66 266,66 267,66 268,66 270,67 270,67 270,67 270,67 270,68 269,68 269,69 268,69 268,70 268,70 269,69 269,69 269,69 269,69 269,68 270,68 270,68 271,68 271,68 272,67 273,67 273,67 274,67 275,68 275,68 275,67 275,67 275,67 275,67 276,67 276,67 276,67 277,67 277,67 277,67 278,66 279,66 279,67 280,67 280,66 280,66 281,66 281,66 281,66 281,66 281,66 282,66 282,66 283,66 285,66 288,66 289,66 291,65 292,65 294,65 295,65 295,65 295,65 295,65 296,65 296,65 298,65 300,65 301,65 301,65 300,65 300,64 299,64 299,64 300,63 300,63 301,63 301,63 301,64 301,64 301,64 302,64 304,64 305,64 307,64 308,64 310,64 311,64 310,65 310,65 310,66 309,66 309,67 309,67 308,67 308,67 307,68 307,68 308,69 308,69 309,69 309,69 309,69 309,69 310,69 309,70 309,70 309,70 309,71 307,72 306,73 305,74 304,74 301,75 300,75 298,76 298,76 298,77 297,77 296,78 290,81 288,81 287,82 287,82 287,83 286,83 286,83 285,83 284,83 283,84 282,84 282,84 282,84 282,85 282,85 281,85 282,84 281,84 280,84 280,84 279,84 280,84 280,85 280,85 281,85 282,85 282,85 282,86 282,86 282,86 282,87 281,87 280,87 280,87 280,87 279,87 279,87 278,87 277,87 276,87 273,87 273,87 272,86 271,86 271,86 272,87 273,87 274,87 275,87 276,87 276,87 277,88 278,88 278,88 278,87 280,88 281,88 283,87 283,88 284,88 284,88 285,88 286,88 287,88 287,87 288,87 288,87 288,87 288,88 288,88 284,91 284,91 283,92 282,92 282,92 281,92 281,91 282,91 281,91 280,91 278,92 277,92 276,92 274,92 274,92 273,92 273,93 273,93 273,93 272,93 270,94 270,94 270,95 270,95 270,95 270,95 271,95 271,95 272,94 272,94 272,94 274,93 275,93 276,92 276,92 277,92 277,93 279,93 279,93 280,93 280,92 281,92 282,92 282,92 281,93 280,93 280,94 279,95 279,95 279,95 279,95 279,95 278,95 277,95 277,96 277,96 277,96 276,96 274,96 274,96 275,96 276,96 276,96 275,97 275,97 275,98 276,98 276,98 277,98 277,97 278,97 278,97 278,97 279,97 279,96 280,96 280,96 280,96 281,96 281,95 280,95 280,95 283,95 286,95 287,95 291,93 293,93 293,93 293,93 292,93 293,93 293,93 294,93 294,93 293,93 294,93 295,93 296,93 296,93 296,92 297,92 297,92 297,91 297,91 297,91 298,91 298,91 299,91 299,91 303,91 305,92 309,93 310,93 311,92 313,92 314,92 318,92 318,92 319,92 319,92 319,92 320,92 320,92 320,92 321,92 324,92 324,92 325,93 325,92 325,92 326,92 326,92 328,93 328,92 328,92 328,92 329,93 329,92 329,92 330,92 330,92 331,92 331,92 331,92 331,92 331,92 332,92 332,92 334,92 334,92 335,92 337,92 337,91 340,92 340,92 341,92 341,92 341,92 341,92 342,92 342,92 342,92 343,93 345,94 345,95 346,95 346,96 346,96 346,96 346,97 346,97 347,98 347,98 347,98 347,98 347,98 347,98 347,98 346,99 345,100 345,100 345,101 342,102 341,103 339,105 338,107 338,107 338,108 339,108 339,109 338,109 338,109 336,111 335,112 334,113 335,114 335,114 335,114 335,114 335,115 334,115 334,115 334,116 333,116 332,116 332,117 331,118 330,118 329,119 328,119 328,119 328,120 327,120 327,121 327,121 326,122 326,122 326,122 326,123 326,123 326,123 326,123 325,124 325,124 322,125 322,126 321,126 320,126 320,127 319,127 319,127 319,127 318,127 318,127 316,127 310,128 309,128 308,128 307,129 304,130 303,131 302,130 302,131 303,131 304,131 304,131 306,130 307,130 313,129 313,128 313,128 314,128 314,128 315,128 316,128 317,128 317,129 317,129 317,130 316,130 316,130 317,130 317,131 317,131 317,131 317,131 317,131 318,131 318,131 321,132 321,132 322,132 322,132 323,133 323,133 322,134 321,134 321,135 319,135 317,135 317,136 316,136 314,135 313,135 312,135 312,135 312,136 310,136 308,137 308,137 307,138 307,138 307,139 306,139 306,139 304,139 303,140 302,140 301,140 300,140 299,140 294,140 292,140 290,139 289,139 289,139 288,138 288,138 287,138 287,138 287,138 289,139 289,139 289,139 290,140 290,140 290,140 291,140 291,140 291,140 292,141 292,141 292,141 294,141 294,141 299,141 301,141 301,141 302,141 302,141 302,142 308,142 308,142 308,142 309,143 309,143 311,143 313,142 314,142 314,141 315,141 315,141 315,140 315,140 315,140 315,140 316,139 317,139 322,139 322,140 323,140 324,140 323,141 323,141 324,141 324,141 325,141 325,141 325,141 325,141 326,141 327,142 328,142 330,143 331,143 336,143 336,144 336,144 336,144 337,144 337,144 337,145 338,145 340,147 340,147 344,150 344,151 345,151 345,151 345,151 345,152 346,152 346,152 346,152 346,151 346,151 347,151 347,152 347,152 348,152 347,152 347,152 347,152 348,152 349,152 351,153 351,153 351,154 351,154 351,154 351,154 351,154 351,155 351,155 352,155 352,155 352,155 352,156 352,156 352,156 352,156 352,158 352,158 352,159 352,159 352,159 352,160 353,161 353,161 353,161 353,161 353,162 353,162 353,162 353,162 353,162 353,162 353,163 354,163 354,164 354,164 354,164 354,164 355,165 354,165 354,165 354,165 354,166 355,166 355,166 355,167 355,168 355,168 355,168 356,168 356,168 356,168 356,168 357,169 357,169 357,169 357,170 357,170 358,170 358,170 359,171 359,171 359,171 359,172 359,172 359,172 359,173 359,173 359,173 361,177 361,178 362,178 363,178 364,179 364,179 364,179 364,179 364,179 364,179 364,180 364,180 364,180 365,180 364,181 364,181 363,181 363,181 364,181 364,181 364,181 364,181 364,181 364,181 364,181 364,181 365,181 365,181 365,181 365,181 365,181 365,180 366,181 366,181 367,181 368,181 370,182 376,183 382,185 383,186 383,186 383,187 383,187 383,187 384,187 385,188 385,188 385,188 386,189 386,190 386,190 386,191 387,191 387,191 387,191 387,191 387,191 387,192 388,192 388,192 389,192 389,193 390,193 390,193 391,193 391,194 391,194 392,195 395,195 396,196 394,197 393,197 392,199 393,199 394,201 394,202 397,205 402,210 403,211 402,212 402,212 402,212 402,211 402,211 402,210 401,210 400,210 399,210 399,210 398,210 397,210 396,210 396,210 395,210 395,210 392,207 391,207 390,207 390,207 386,208 385,208 384,208 383,208 382,208 382,207 382,207 380,207 379,207 377,208 378,208 378,208 378,208 378,208 379,208 380,208 380,208 381,208 382,208 383,209 383,209 383,209 384,208 390,208 390,208 391,208 393,210 394,211 395,211 396,212 397,212 397,212 398,213 401,214 402,214 402,214 403,215 403,215 403,215 403,215 404,216 404,216 404,216 405,216 405,216 405,217 406,217 406,217 406,218 408,222 409,223 409,224 408,226 408,226 408,226 407,226 407,226 404,228 404,228 403,228 401,230 400,231 400,231 399,231 399,231 399,232 400,232 401,232 402,232 402,232 403,232 403,232 405,234 406,234 406,234 407,234 408,234 408,234 409,235 410,235 410,235 409,234 410,234 411,233 411,233 411,232 412,232 412,231 413,230 414,230 415,229 417,229 418,229 418,229 418,229 419,229 420,229 420,229 423,229 424,229 425,230 427,230 428,230 428,229 427,229 427,229 427,229 427,229 436,230 439,232 446,235 447,236 448,236 448,238 449,238 449,239 449,240 449,240 449,241 449,242 450,243 450,244 450,244 449,245 449,246 449,246 447,248 447,249 446,249 446,250 446,250 446,252 446,252 445,253 445,254 445,255 445,255 445,255 442,256 442,256 441,256 441,256 441,256 441,257 441,257 440,257 438,259 438,259 437,259 435,258 434,257 433,257 432,257 432,257 433,257 434,258 435,258 435,258 436,258 436,259 435,259 435,259 435,259 434,259 434,259 433,259 432,258 432,258 430,259 430,259 430,259 435,259 436,259 436,260 433,261 434,261 434,261 435,261 436,261 436,261 436,261 436,262 436,262 434,263 432,264 431,264 429,264 429,264 429,264 428,263 427,262 427,262 427,263 426,263 425,263 424,264 424,264 424,264 424,264 424,265 424,265 424,265 423,265 423,265 422,265 422,265 421,265 421,265 419,265 419,266 419,266 420,266 420,266 421,266 421,266 423,266 424,265 425,265 426,265 426,265 426,265 426,266 426,266 426,266 426,266 426,267 426,267 426,267 426,267 426,268 426,268 425,268 425,268 426,268 426,269 426,269 425,269 424,270 423,271 422,271 421,271 419,271 418,271 418,271 417,271 417,271 417,271 417,271 417,271 416,271 416,272 415,272 415,272 415,272 414,272 414,272 412,272 412,272 411,272 411,273 411,273 411,273 410,273 410,273 412,273 412,273 412,273 412,273 412,273 414,272 419,273 419,273 419,273 419,274 419,274 419,274 418,274 417,274 416,274 415,274 415,275 415,275 415,275 415,275 416,275 418,275 419,275 419,275 419,275 419,274 420,274 420,275 420,275 420,276 421,276 427,276 430,276 440,275 441,275 440,276 440,277 440,277 440,277 440,277 439,277 439,277 439,278 439,278 439,279 440,280 439,281 439,282 438,283 436,283 435,284 435,284 434,284 434,284 434,284 433,284 433,284 433,284 431,284 430,284 430,285 428,285 427,287 427,287 427,288 427,289 426,289 424,289 422,288 421,289 418,290 417,291 410,292 409,292 409,292 409,292 408,292 408,293 407,293 406,294 405,294 405,294 403,294 403,294 402,294 402,293 401,293 401,293 399,293 399,293 393,292 392,292 392,292 392,292 391,292 387,292 382,292 377,293 377,293 377,293 376,293 376,293 376,293 376,294 376,294 375,294 375,294 372,293 372,293 372,293 372,293 373,292 373,292 373,292 372,292 372,292 372,292 372,292 371,292 372,291 371,291 371,291 370,291 370,291 369,291 369,291 368,292 368,292 368,293 367,293 366,293 367,292 367,292 367,291 367,291 367,291 365,291 365,291 366,292 366,292 366,292 366,293 365,293 365,293 364,293 364,293 364,292 364,292 363,292 362,291 361,291 361,291 360,291 359,290 356,289 356,289 356,289 356,289 357,289 357,290 358,290 360,292 360,292 360,292 359,293 358,293 357,293 357,293 358,293 358,293 356,293 355,293 355,294 355,294 354,294 353,295 353,295 353,295 352,295 352,294 350,294 350,294 349,294 349,294 347,295 347,295 346,295 345,295 344,295 344,295 343,295 343,295 343,295 342,295 342,296 342,295 342,295 342,295 341,295 340,295 340,295 340,295 339,295 339,294 339,294 339,294 338,295 338,295 339,295 339,295 339,295 340,296 340,296 341,296 341,296 342,296 342,296 342,297 342,297 342,297 341,298 341,298 341,298 338,298 338,298 336,298 330,297 329,297 329,297 328,297 327,297 327,298 327,299 327,299 328,299 328,299 327,300 327,300 327,300 327,299 326,299 320,296 315,294 314,294 313,295 312,295 311,295 311,295 309,295 309,295 308,295 308,295 308,296 307,296 307,296 307,296 306,296 306,296 305,296 304,296 303,296 303,297 303,297 300,298 300,298 299,298 299,297 299,297 298,296 298,296 298,296 298,296 298,296 298,296 298,296 297,296 298,296 298,297 298,298 299,298 298,298 298,299 297,299 297,300 296,301 296,301 297,302 296,302 296,302 295,303 295,303 295,304 296,304 297,304 297,304 297,304 297,305 296,305 296,305 296,305 296,306 295,306 295,306 295,305 294,306 294,306 293,306 293,307 293,307 292,308 292,308 292,309 292,309 291,309 290,310 290,309 289,309 289,309 288,310 287,309 285,308 284,306 283,306 283,306 282,307 282,307 282,307 281,307 281,307 281,307 280,307 280,307 280,307 280,306 280,306 279,306 279,305 279,305 278,305 278,305 277,305 277,305 277,304 277,304 276,304 277,303 277,303 277,302 277,303 277,302 276,302 276,303 276,303 276,303 276,303 275,303 275,303 276,303 276,304 276,304 275,304 275,304 274,304 274,305 276,304 276,305 275,305 275,305 276,305 276,305 276,305 277,305 277,306 276,306 276,306 276,306 276,306 276,306 276,306 275,306 275,306 275,305 272,305 271,305 269,306 268,306 263,306 263,306 263,306 263,307 262,307 262,306 262,306 262,306 262,306 261,306 261,306 260,306 260,306 260,307 260,307 260,307 260,307 259,307 259,308 259,308 259,308 259,308 259,309 259,309 259,309 257,309 257,309 256,309 256,310 254,310 254,310 253,312 253,311 252,310 252,310 251,310 251,310 251,311 251,311 251,311 251,311 252,312 251,311 251,312 251,312 251,312 251,312 251,312 250,313 250,313 249,313 250,313 250,313 250,313 250,313 251,313 251,313 251,313 251,314 251,314 251,314 251,314 250,315 250,315 249,315 249,315 249,315 248,316 247,317 247,317 247,317 247,317 246,316 246,316 246,316 246,315 246,315 246,315 245,315 245,314 244,313 244,313 242,313 241,312 240,312 239,312 239,312 238,312 237,312 237,313 237,313 237,314 237,314 236,314 235,314 234,314 232,314 232,313 232,313 233,313 233,313 233,313 233,313 233,313 233,313 232,312 232,312 232,312 232,312 233,311 233,311 234,311 236,310 237,310 238,309 239,309 240,310 240,310 241,310 241,309 241,309 242,309 242,309 243,309 244,308 247,306 248,306 249,306 249,305 249,305 249,305 248,304 249,304 249,304 249,304 251,303 252,303 252,303 252,302 252,301 252,300 252,300 253,300 254,300 254,300 254,299 254,299 255,299 255,300 255,300 255,301 255,300 255,300 255,300 256,301 257,301 257,301 257,300 257,300 256,300 255,300 255,299 255,299 255,299 255,299 256,299 258,299 259,298 259,298 260,297 260,297 260,297 260,296 260,296 261,296 263,295 263,295 263,294 264,294 265,293 266,292 266,290 266,288 266,288 267,287 267,287 267,287 267,286 267,286 269,286 270,286 270,287 271,287 272,287 273,287 273,286 275,285 275,285 276,285 276,284 276,284 276,284 275,283 275,283 275,283 275,282 275,282 276,282 276,282 276,282 276,282 276,281 275,281 275,281 278,280 283,280 284,280 285,280 287,280 287,280 288,279 289,279 293,280 295,280 299,280 299,281 300,281 303,281 305,281 306,281 308,281 309,281 310,280 311,280 310,281 311,281 311,280 311,280 311,280 311,280 311,279 311,279 311,278 311,278 311,277 311,277 311,277 311,277 311,277 312,277 312,276 312,276 312,276 312,275 313,275 313,275 315,274 316,273 317,273 318,272 318,272 319,272 319,272 320,272 323,269 323,269 323,269 323,269 323,268 324,268 324,268 324,268 324,267 326,266 327,265 327,265 328,265 329,265 329,264 329,264 329,264 329,264 328,265 327,265 327,265 326,265 326,265 325,266 325,266 323,267 323,267 323,267 321,269" style="fill:gray;stroke:white;stroke-width:2"/><polygon fill-opacity="0.8" fill="#3498DB" stroke="#000000" stroke-width="1"  points="367,295 368,296 368,296 367,296 367,296 367,296 367,296 366,296 366,296 365,297 365,297 365,297 365,298 365,298 364,298 361,299 360,299 356,297 356,297 355,296 355,296 354,296 353,296 353,297 353,296 355,295 357,294 357,294 357,295 357,295 358,295 358,294 359,294 360,293 361,293 365,294 366,294 366,294 367,295 367,295 367,295 367,295 367,295 367,295 367,295" style="fill:gray;stroke:white;stroke-width:2"/><polygon fill-opacity="0.8" fill="#3498DB" stroke="#000000" stroke-width="1"  points="371,292 371,292 371,292 371,293 371,293 371,293 369,293 369,293 369,292 370,292 371,292 371,292 371,292 371,292 371,292" style="fill:gray;stroke:white;stroke-width:2"/><polygon fill-opacity="0.8" fill="#3498DB" stroke="#000000" stroke-width="1"  points="425,275 426,275 426,275 426,276 425,276 422,276 421,276 421,275 420,275 420,275 420,274 420,274 421,274 424,274 425,274 425,275" style="fill:gray;stroke:white;stroke-width:2"/><polygon fill-opacity="0.8" fill="#3498DB" stroke="#000000" stroke-width="1"  points="265,220 265,221 266,221 266,221 266,221 265,221 265,221 265,221 264,220 264,220 263,220 263,220 262,220 262,220 262,219 263,219 263,219 263,219 264,219 264,219 264,219 265,220 265,220 265,220" style="fill:gray;stroke:white;stroke-width:2"/><polygon fill-opacity="0.8" fill="#3498DB" stroke="#000000" stroke-width="1"  points="279,219 280,219 280,219 281,220 280,220 279,221 278,221 278,221 277,222 276,222 276,222 276,222 276,223 276,223 276,223 276,223 275,223 275,223 274,224 274,224 272,225 272,225 271,225 271,224 271,224 270,225 270,225 270,225 270,224 270,224 270,224 270,224 270,224 271,223 271,223 271,223 270,223 269,224 269,224 269,224 268,223 268,223 268,223 268,223 268,223 268,223 268,223 268,223 268,222 268,222 267,222 266,221 265,220 265,220 266,220 266,219 266,219 266,218 266,217 265,217 266,217 270,216 270,216 272,216 273,216 274,217 274,217 274,217 274,217 274,218 274,218 275,218 275,218 275,218 275,218 275,218 275,218 275,219 275,219 276,219 276,219 276,220 276,220 276,220 277,220 278,220 278,220 278,220 278,219 278,219 279,219 279,219 279,219" style="fill:gray;stroke:white;stroke-width:2"/><polygon fill-opacity="0.8" fill="#3498DB" stroke="#000000" stroke-width="1"  points="217,161 218,161 219,161 219,162 219,162 218,162 218,163 218,162 218,162 218,162 218,162 218,162 217,162 216,162 216,162 216,161 216,161 217,161 217,161" style="fill:gray;stroke:white;stroke-width:2"/><polygon fill-opacity="0.8" fill="#3498DB" stroke="#000000" stroke-width="1"  points="251,155 250,156 250,156 251,156 251,157 250,157 250,157 248,158 247,157 245,157 244,157 243,156 243,156 243,156 243,155 242,155 242,155 243,154 243,154 243,154 243,154 242,154 242,153 241,152 242,151 242,151 243,150 244,150 244,150 244,149 244,149 244,149 245,149 245,149 247,150 248,150 248,151 249,151 249,153 249,153 250,154 250,154 250,154 250,154 249,155 249,155 250,155 251,155" style="fill:gray;stroke:white;stroke-width:2"/><polygon fill-opacity="0.8" fill="#3498DB" stroke="#000000" stroke-width="1"  points="252,148 252,148 253,149 253,149 252,149 252,149 252,149 251,148 250,147 249,147 249,146 249,146 248,145 248,145 247,145 247,144 247,144 248,143 249,144 250,144 250,144 250,145 251,145 251,145 251,145 251,145 251,146 252,146 252,146 252,147 253,148 253,148 252,148 252,148" style="fill:gray;stroke:white;stroke-width:2"/><polygon fill-opacity="0.8" fill="#3498DB" stroke="#000000" stroke-width="1"  points="223,149 223,149 223,150 223,150 223,150 223,150 223,150 223,151 222,151 222,151 222,151 221,151 221,152 220,152 219,152 218,152 218,152 217,153 217,153 217,153 216,153 215,153 215,153 214,153 215,152 215,151 217,151 216,150 216,150 215,149 214,149 214,149 215,148 217,148 216,147 215,147 214,147 214,148 213,149 213,149 212,150 211,150 210,151 210,151 209,150 209,150 210,149 209,149 209,149 209,149 209,149 211,148 210,147 210,147 210,147 211,147 211,146 211,146 211,145 212,145 214,145 214,144 214,144 215,144 214,145 214,145 214,146 214,146 214,146 215,146 215,146 215,146 215,145 216,144 217,144 218,144 218,143 219,143 219,143 219,143 220,143 220,143 220,143 220,143 220,144 221,146 221,147 221,147 222,147 222,148 222,148 222,148 222,148 222,148 222,149 222,149 222,149 223,149" style="fill:gray;stroke:white;stroke-width:2"/><polygon fill-opacity="0.8" fill="#3498DB" stroke="#000000" stroke-width="1"  points="218,138 218,138 219,138 219,138 219,138 219,138 219,138 219,138 219,137 220,137 220,138 219,139 219,139 219,140 218,140 217,140 217,140 216,140 216,140 217,139 217,139 217,139 218,138 218,138" style="fill:gray;stroke:white;stroke-width:2"/><polygon fill-opacity="0.8" fill="#3498DB" stroke="#000000" stroke-width="1"  points="230,138 231,137 232,137 233,137 233,137 233,137 233,138 232,138 232,139 231,139 230,140 228,143 227,144 227,144 226,145 226,145 225,145 225,146 225,147 224,147 223,147 222,147 222,146 221,144 221,144 222,144 222,143 223,143 223,143 224,142 226,142 227,142 226,142 225,142 224,142 224,141 224,141 225,140 226,139 227,139 228,139 230,138" style="fill:gray;stroke:white;stroke-width:2"/><polygon fill-opacity="0.8" fill="#3498DB" stroke="#000000" stroke-width="1"  points="233,135 233,135 233,136 233,136 232,136 231,136 231,136 232,136 233,135" style="fill:gray;stroke:white;stroke-width:2"/><polygon fill-opacity="0.8" fill="#3498DB" stroke="#000000" stroke-width="1"  points="235,133 235,134 235,134 235,134 235,133 235,134 235,134 235,135 234,136 234,135 234,135 234,134 234,134 235,133" style="fill:gray;stroke:white;stroke-width:2"/><polygon fill-opacity="0.8" fill="#3498DB" stroke="#000000" stroke-width="1"  points="235,132 235,132 236,132 236,132 236,132 235,132 235,132 236,133 235,133 234,133 234,132 235,132" style="fill:gray;stroke:white;stroke-width:2"/><polygon fill-opacity="0.8" fill="#3498DB" stroke="#000000" stroke-width="1"  points="237,129 238,129 238,129 238,129 238,129 237,130 237,130 236,130 236,130 236,129 237,129" style="fill:gray;stroke:white;stroke-width:2"/><polygon fill-opacity="0.8" fill="#3498DB" stroke="#000000" stroke-width="1"  points="219,127 218,127 217,127 216,127 216,127 217,127 217,126 218,126 218,127 219,127 219,127" style="fill:gray;stroke:white;stroke-width:2"/><polygon fill-opacity="0.8" fill="#3498DB" stroke="#000000" stroke-width="1"  points="200,125 202,125 202,125 203,126 202,126 200,126 200,127 200,127 199,127 199,127 198,128 198,128 198,128 196,128 195,127 195,127 195,126 196,126 198,126 198,126 199,126 200,125" style="fill:gray;stroke:white;stroke-width:2"/><polygon fill-opacity="0.8" fill="#3498DB" stroke="#000000" stroke-width="1"  points="233,128 233,129 234,129 234,129 233,130 232,130 232,130 232,129 232,129 232,129 232,129 231,129 231,129 231,130 230,130 230,130 231,130 231,130 232,130 233,130 232,130 232,131 229,132 228,132 227,132 228,132 228,131 228,131 228,131 228,131 228,131 227,131 227,131 227,131 226,131 226,131 225,132 223,132 222,133 222,133 222,133 221,132 221,132 221,132 220,133 220,133 217,133 217,133 217,133 216,133 216,133 216,133 215,133 214,133 214,133 213,132 213,132 213,131 214,131 215,131 215,131 216,131 216,132 217,132 217,132 217,132 217,132 217,132 217,131 217,131 217,131 218,131 219,131 219,131 221,131 223,130 223,130 223,130 222,130 221,130 219,131 219,131 218,130 218,130 218,130 218,130 219,129 219,129 219,129 220,129 220,128 220,128 220,128 220,128 221,128 223,128 224,127 224,127 224,127 224,127 223,126 221,127 221,127 221,127 220,127 220,127 220,127 219,127 219,126 219,126 218,126 215,126 215,125 214,125 214,125 215,124 215,124 215,124 214,123 215,123 216,123 216,123 217,123 217,123 217,123 217,123 217,123 218,122 219,122 220,122 221,122 222,122 222,123 222,123 222,123 223,123 224,124 225,125 225,125 225,126 225,126 225,126 228,126 228,126 229,126 229,126 229,126 230,126 230,126 230,126 231,127 231,127 231,127 232,127 232,127 232,127 233,127 233,128 233,128 233,128 234,128 234,128 234,129 234,129 233,128 233,128" style="fill:gray;stroke:white;stroke-width:2"/><polygon fill-opacity="0.8" fill="#3498DB" stroke="#000000" stroke-width="1"  points="210,121 210,122 210,122 210,122 209,123 209,123 209,123 208,123 207,124 206,124 205,124 205,124 204,124 204,125 204,125 204,125 204,124 203,124 204,124 205,124 206,122 207,122 208,122 208,122 209,121 210,121 210,121 211,121 210,121" style="fill:gray;stroke:white;stroke-width:2"/><polygon fill-opacity="0.8" fill="#3498DB" stroke="#000000" stroke-width="1"  points="183,112 183,112 183,112 184,112 184,112 183,112 183,113 183,113 182,113 182,113 182,113 182,113 182,114 181,114 181,114 179,113 179,113 179,113 179,113 179,113 180,113 180,112 180,112 179,112 180,111 181,111 181,111 182,110 182,110 182,110 182,110 182,110 182,111 183,111 183,111 182,111 182,111 183,112 183,112" style="fill:gray;stroke:white;stroke-width:2"/><polygon fill-opacity="0.8" fill="#3498DB" stroke="#000000" stroke-width="1"  points="214,110 216,111 217,111 216,111 216,112 217,112 216,113 216,113 215,114 214,114 213,114 213,113 212,113 212,113 211,112 211,112 212,111 213,110 214,110" style="fill:gray;stroke:white;stroke-width:2"/><polygon fill-opacity="0.8" fill="#3498DB" stroke="#000000" stroke-width="1"  points="206,110 207,110 208,110 208,110 209,110 209,110 210,110 209,111 208,111 207,111 206,110" style="fill:gray;stroke:white;stroke-width:2"/><polygon fill-opacity="0.8" fill="#3498DB" stroke="#000000" stroke-width="1"  points="225,104 224,104 224,103 223,103 224,103 225,103 226,103 226,103 225,104" style="fill:gray;stroke:white;stroke-width:2"/><polygon fill-opacity="0.8" fill="#3498DB" stroke="#000000" stroke-width="1"  points="188,103 188,103 188,103 189,103 189,103 189,104 189,104 188,104 188,104 188,104 187,105 187,105 187,105 184,105 184,105 186,105 187,106 187,106 187,107 187,107 187,108 186,108 186,107 185,107 185,108 185,108 186,108 187,108 187,108 188,108 188,108 188,108 188,109 188,109 185,109 184,109 184,109 183,108 183,107 183,106 183,106 183,106 182,105 182,105 181,105 182,105 182,105 182,104 183,104 183,104 183,103 183,103 183,103 183,102 182,101 183,100 184,100 184,100 187,101 187,101 187,101 186,101 186,101 187,101 188,102 188,102 188,102 187,102 187,102 186,102 185,101 185,101 184,101 183,101 183,101 184,101 184,101 184,101 184,102 184,102 184,102 185,102 185,102 185,102 186,102 186,102 187,102 188,103" style="fill:gray;stroke:white;stroke-width:2"/><polygon fill-opacity="0.8" fill="#3498DB" stroke="#000000" stroke-width="1"  points="187,98 187,98 187,98 187,98 187,98 187,98 187,98 188,98 188,98 188,98 189,99 189,99 188,99 188,99 187,99 187,99 187,99 188,99 189,99 189,100 189,100 186,100 185,100 183,99 183,99 183,98 183,98 184,98 185,98 185,98 185,98 186,98 186,98 186,98 186,98 187,98 187,98" style="fill:gray;stroke:white;stroke-width:2"/><polygon fill-opacity="0.8" fill="#3498DB" stroke="#000000" stroke-width="1"  points="222,102 222,102 222,101 222,99 222,99 223,99 223,99 223,98 223,98 223,98 223,98 223,98 223,98 224,98 224,98 224,97 224,97 224,97 224,97 224,98 224,98 224,99 223,100 223,101 224,101 224,101 224,102 224,102 223,102 223,102 222,102 222,102 222,102 222,102 222,102" style="fill:gray;stroke:white;stroke-width:2"/><polygon fill-opacity="0.8" fill="#3498DB" stroke="#000000" stroke-width="1"  points="225,97 224,97 224,96 224,96 225,96 224,96 224,96 224,96 225,95 225,95 225,95 225,95 225,96 225,97" style="fill:gray;stroke:white;stroke-width:2"/><polygon fill-opacity="0.8" fill="#3498DB" stroke="#000000" stroke-width="1"  points="191,93 191,93 192,93 193,93 193,94 193,94 192,94 192,94 191,94 191,94 191,94 191,94 190,94 190,93 188,93 188,94 189,94 189,94 189,94 189,94 189,94 190,94 190,94 190,95 190,95 191,95 192,95 191,95 190,96 189,96 188,96 188,96 188,96 188,96 187,95 187,95 187,95 186,96 186,96 188,96 189,96 190,96 191,96 191,96 191,96 191,96 190,97 189,97 188,97 188,97 187,97 186,97 186,97 186,97 185,97 185,97 185,96 185,96 185,96 185,96 185,96 185,96 183,95 182,95 182,95 181,95 181,96 181,95 181,95 180,95 179,95 179,95 180,94 180,94 180,93 181,93 181,93 183,93 183,93 183,93 183,93 183,93 184,93 185,92 186,92 186,92 185,92 185,92 185,93 187,93 187,93 187,93 187,93 187,93 187,93 189,92 189,92 190,92 190,92 190,93 189,93 190,93 191,93 191,93" style="fill:gray;stroke:white;stroke-width:2"/><polygon fill-opacity="0.8" fill="#3498DB" stroke="#000000" stroke-width="1"  points="207,102 207,102 204,102 204,101 203,101 203,101 203,100 201,99 201,99 203,99 202,98 202,98 202,98 202,97 203,97 203,97 203,97 205,98 205,99 205,99 206,99 206,99 206,99 206,99 206,98 206,98 206,98 206,98 206,98 206,98 205,98 205,98 205,97 206,97 206,97 206,97 207,97 207,97 207,97 206,96 206,96 205,96 205,96 205,95 206,95 205,95 205,94 206,94 206,95 207,95 207,95 207,95 207,96 207,96 208,96 208,96 209,96 210,97 210,97 210,97 211,97 211,97 212,97 211,98 211,98 212,97 212,97 213,97 215,99 215,98 215,98 214,98 214,98 214,98 214,97 213,97 213,96 213,96 213,95 213,95 213,95 213,95 212,95 212,95 212,94 212,94 212,94 212,94 212,93 212,93 212,93 213,93 213,93 214,92 214,92 214,92 214,92 215,92 215,92 215,92 215,92 215,92 216,92 216,93 217,93 217,93 218,94 219,94 219,95 219,95 220,97 220,98 220,98 220,99 220,99 220,100 219,100 219,100 218,101 219,100 219,100 220,100 220,100 220,100 220,101 220,101 220,101 220,102 220,102 221,102 221,102 221,103 220,103 219,103 222,103 223,103 223,103 222,104 222,104 222,104 222,104 223,104 224,104 224,104 225,104 225,104 226,104 226,104 226,104 227,105 227,105 227,105 227,105 228,105 228,105 229,105 230,104 231,104 231,104 232,104 234,104 234,105 234,105 234,106 234,106 233,106 233,106 232,107 231,107 230,107 230,107 230,108 230,108 229,109 228,109 228,109 228,109 226,111 226,111 225,111 224,111 223,111 223,111 223,110 224,110 224,109 224,109 224,109 224,109 224,109 224,109 224,108 225,108 225,108 226,107 228,107 228,107 228,107 227,107 224,107 224,107 224,107 224,106 224,106 223,106 223,105 223,105 223,106 223,106 223,106 223,107 223,107 222,107 223,107 222,108 222,108 222,108 221,108 221,108 221,108 221,107 221,107 220,106 220,106 220,106 220,107 220,106 219,106 219,106 219,106 219,106 219,107 219,107 215,107 215,107 215,107 216,106 216,106 215,106 215,106 214,106 214,107 213,106 213,105 213,105 213,105 214,105 214,105 212,105 212,105 211,104 211,104 210,104 210,103 210,103 210,103 210,103 210,103 211,102 212,102 212,102 213,103 213,103 214,103 215,103 214,103 213,102 212,102 212,102 212,102 211,102 211,102 210,102 211,102 211,101 211,101 210,101 210,101 210,101 210,101 210,101 210,101 210,101 210,100 210,100 209,101 209,101 209,101 209,100 209,100 208,100 208,100 208,100 207,100 207,101 207,101 207,102 207,102" style="fill:gray;stroke:white;stroke-width:2"/><polygon fill-opacity="0.8" fill="#3498DB" stroke="#000000" stroke-width="1"  points="188,91 189,91 190,91 190,91 190,91 189,91 188,91" style="fill:gray;stroke:white;stroke-width:2"/><polygon fill-opacity="0.8" fill="#3498DB" stroke="#000000" stroke-width="1"  points="148,88 148,88 149,88 150,88 149,88 148,89 148,88 148,88" style="fill:gray;stroke:white;stroke-width:2"/><polygon fill-opacity="0.8" fill="#3498DB" stroke="#000000" stroke-width="1"  points="193,86 193,86 193,86 193,86 192,86 192,86 193,86 192,86 192,86 194,85 194,85 195,85 195,86 194,86 193,86" style="fill:gray;stroke:white;stroke-width:2"/><polygon fill-opacity="0.8" fill="#3498DB" stroke="#000000" stroke-width="1"  points="198,77 199,77 199,77 199,76 198,76 198,76 198,76 198,75 199,76 200,76 200,76 200,76 200,76 201,77 201,77 198,77 198,77" style="fill:gray;stroke:white;stroke-width:2"/><polygon fill-opacity="0.8" fill="#3498DB" stroke="#000000" stroke-width="1"  points="196,90 196,91 195,91 194,90 194,90 192,88 191,88 191,88 191,88 191,88 192,88 192,88 192,88 192,88 192,88 195,87 195,87 196,87 197,87 196,86 196,86 197,85 198,85 199,85 200,86 199,86 199,85 199,85 199,85 199,85 199,85 199,85 199,85 198,85 197,85 197,84 196,84 194,84 194,84 193,84 193,84 193,84 191,83 192,83 192,83 193,83 193,83 193,82 193,82 193,82 193,82 193,82 194,82 195,82 197,81 194,82 193,82 193,81 193,81 194,81 194,81 194,81 193,81 193,81 194,81 194,81 194,81 193,81 193,81 192,80 191,80 192,80 191,79 191,79 191,79 191,79 191,79 191,78 192,78 192,78 192,78 192,78 192,78 192,78 191,78 191,78 194,78 194,77 193,77 193,77 193,77 193,76 193,76 194,76 194,76 195,76 196,76 196,76 197,77 197,77 197,77 197,77 197,78 198,78 198,78 198,79 198,79 199,80 199,80 199,79 199,79 199,79 198,78 198,78 198,78 198,78 198,77 199,77 200,77 200,77 201,77 201,77 202,78 202,78 203,77 202,77 202,77 202,77 202,76 202,76 202,76 201,76 201,76 201,76 201,76 201,76 200,75 200,75 200,75 200,75 200,75 201,75 201,75 201,75 201,75 200,75 200,75 202,73 203,73 203,73 204,73 204,73 204,73 205,73 206,73 208,72 208,72 209,72 214,69 215,68 216,68 217,68 217,68 218,69 218,69 218,70 219,70 219,71 218,71 218,71 218,72 218,72 218,73 219,73 219,73 219,73 218,73 217,73 217,74 217,74 217,74 216,74 216,74 216,74 215,75 215,75 215,75 215,76 215,76 214,76 214,76 213,76 214,76 215,77 216,77 217,76 218,76 219,75 219,75 219,75 219,76 219,76 219,76 219,76 219,76 219,76 219,76 219,77 218,77 218,77 218,77 218,77 218,77 217,78 217,77 216,77 215,77 214,77 214,77 213,77 212,77 213,78 213,78 213,78 213,78 213,79 213,79 212,79 211,79 210,80 210,80 209,80 209,80 209,80 208,80 206,80 206,80 206,81 207,81 211,80 212,80 212,80 212,80 213,80 213,81 213,81 213,81 213,81 213,81 213,81 212,82 212,82 213,82 213,82 213,82 214,82 213,82 213,82 212,83 211,83 209,83 208,82 208,82 208,83 208,83 209,83 209,83 210,83 211,84 211,84 210,84 210,84 210,85 209,85 209,85 208,85 208,85 208,85 208,85 208,85 208,85 208,85 208,85 207,85 207,85 206,85 206,84 206,84 206,84 205,84 206,85 206,85 206,85 206,85 205,85 205,85 204,85 204,84 203,84 203,83 203,83 204,82 204,82 206,81 207,81 207,81 204,81 204,81 204,82 203,82 202,83 202,83 202,83 203,84 203,84 203,84 204,84 204,85 204,85 204,85 204,85 204,85 204,85 204,85 204,85 204,85 204,86 204,86 205,86 202,86 201,86 201,86 201,86 201,86 200,86 201,86 201,87 202,87 202,87 202,88 202,88 202,88 201,88 201,88 201,88 201,88 201,88 200,88 199,88 199,88 199,88 199,88 199,88 199,89 199,89 198,89 198,89 198,89 198,89 198,90 196,90" style="fill:gray;stroke:white;stroke-width:2"/><polygon fill-opacity="0.8" fill="#3498DB" stroke="#000000" stroke-width="1"  points="313,58 314,58 315,59 314,59 314,59 313,59 313,60 314,60 314,60 313,60 314,61 314,61 314,61 313,62 312,61 312,61 312,60 312,60 311,59 311,59 311,59 312,59 312,59 312,59 310,59 310,59 311,59 313,58" style="fill:gray;stroke:white;stroke-width:2"/><polygon fill-opacity="0.8" fill="#3498DB" stroke="#000000" stroke-width="1"  points="304,60 305,60 306,59 307,59 307,60 305,60 302,60 302,60 302,59 302,59 301,59 301,59 301,59 300,58 300,58 300,58 300,58 300,57 300,57 300,58 299,58 299,57 299,57 299,57 299,57 299,57 299,56 300,56 301,56 301,56 302,56 303,57 303,57 304,57 306,58 305,58 305,58 305,58 306,59 306,59 306,59 306,59 305,59 304,59 304,60" style="fill:gray;stroke:white;stroke-width:2"/><polygon fill-opacity="0.8" fill="#3498DB" stroke="#000000" stroke-width="1"  points="319,55 319,55 320,55 320,55 320,56 319,56 319,56 318,56 317,56 317,57 316,57 316,57 314,57 313,57 313,56 312,55 312,55 311,55 311,55 310,56 310,55 310,56 309,56 309,55 309,55 309,56 308,56 308,56 308,56 307,56 305,56 305,56 304,55 304,55 305,54 305,54 305,53 305,53 305,53 305,53 305,53 304,53 304,53 304,53 304,53 304,53 304,53 304,53 303,53 303,53 303,54 303,54 303,54 304,54 304,54 303,55 303,55 303,55 302,55 301,54 300,53 301,52 301,52 301,51 302,50 303,50 304,49 306,49 307,50 308,50 308,50 308,50 309,50 309,50 309,51 310,51 309,51 309,51 310,51 311,52 311,52 311,52 311,52 311,52 311,52 311,52 310,52 309,52 309,53 308,53 308,54 307,54 308,54 308,54 309,54 310,54 310,53 311,53 312,54 312,54 313,54 313,53 314,54 314,54 314,54 315,54 315,54 315,54 314,54 315,55 316,54 316,54 317,54 317,54 318,54 318,54 317,55 316,55 316,55 316,56 317,56 317,56 318,56 317,55 317,55 318,55 319,55 319,55" style="fill:gray;stroke:white;stroke-width:2"/><polygon fill-opacity="0.8" fill="#3498DB" stroke="#000000" stroke-width="1"  points="324,50 324,51 324,51 325,51 325,51 323,51 323,52 323,51 322,51 322,51 321,51 321,51 321,51 320,51 321,51 321,51 322,50 322,50 322,50 322,50 321,49 321,49 322,49 322,49 322,49 322,49 322,49 323,49 323,49 324,50 323,50 323,50 323,50 323,50 324,50 324,50 325,50 325,50 325,50 325,50 324,50" style="fill:gray;stroke:white;stroke-width:2"/><polygon fill-opacity="0.8" fill="#3498DB" stroke="#000000" stroke-width="1"  points="311,50 310,50 309,50 308,50 308,49 308,49 308,48 309,48 310,48 310,48 310,48 310,48 310,48 310,48 311,48 312,48 312,48 313,48 313,49 312,49 312,49 312,49 312,49 312,49 312,50 311,50" style="fill:gray;stroke:white;stroke-width:2"/><polygon fill-opacity="0.8" fill="#3498DB" stroke="#000000" stroke-width="1"  points="316,48 316,48 317,48 317,48 317,48 317,48 317,47 317,47 317,47 317,47 318,46 318,46 318,47 318,47 318,47 318,47 319,47 319,47 319,47 319,48 318,48 318,48 318,49 318,49 318,49 319,49 319,49 318,50 318,50 317,50 317,49 317,49 317,49 316,49 316,48" style="fill:gray;stroke:white;stroke-width:2"/><polygon fill-opacity="0.8" fill="#3498DB" stroke="#000000" stroke-width="1"  points="327,45 328,45 328,44 328,45 329,45 329,45 327,46 327,46 327,46 326,46 326,47 326,47 325,47 325,46 325,46 323,47 324,47 324,47 324,47 323,47 323,47 323,47 322,47 321,48 320,48 320,48 320,48 320,48 320,48 320,47 320,47 321,47 321,47 321,47 322,46 322,46 322,46 323,46 323,46 323,46 323,46 322,45 323,45 324,45 325,45 325,45 325,45 324,45 323,46 324,46 324,46 324,46 324,46 325,46 326,45 326,45 327,45 327,45" style="fill:gray;stroke:white;stroke-width:2"/><polygon fill-opacity="0.8" fill="#3498DB" stroke="#000000" stroke-width="1"  points="310,44 309,44 309,44 309,44 309,44 310,44 310,44 311,44 312,43 312,43 313,43 313,44 313,44 313,44 313,44 312,44 312,44 312,44 312,44 312,44 312,44 314,45 314,45 315,46 315,46 315,46 316,46 316,46 316,46 316,46 316,46 315,47 314,47 315,47 315,47 315,46 315,46 313,46 313,45 312,45 312,45 312,46 312,46 312,46 312,46 311,46 311,46 311,46 311,46 311,46 310,45 310,45 310,45 310,44" style="fill:gray;stroke:white;stroke-width:2"/><polygon fill-opacity="0.8" fill="#3498DB" stroke="#000000" stroke-width="1"  points="350,38 351,38 351,38 352,37 352,37 352,38 352,38 352,38 352,38 352,38 352,38 352,38 352,38 352,38 352,38 351,39 351,39 350,38" style="fill:gray;stroke:white;stroke-width:2"/><polygon fill-opacity="0.8" fill="#3498DB" stroke="#000000" stroke-width="1"  points="376,7 376,7 376,7 376,7 376,8 376,8 375,8 374,8 373,8 373,8 373,8 373,8 373,8 374,8 373,8 372,8 371,7 371,6 375,6 375,6 375,7 375,7 375,7 375,7 375,7 376,7 376,7" style="fill:gray;stroke:white;stroke-width:2"/><polygon fill-opacity="0.8" fill="#3498DB" stroke="#000000" stroke-width="1"  points="367,13 367,12 367,12 368,12 368,12 368,12 366,13 366,14 366,14 366,14 366,14 366,13 367,13 367,13 367,13 368,13 368,14 367,14 367,14 367,14 365,14 364,15 365,15 366,15 367,15 366,16 365,16 365,16 365,16 365,17 365,17 366,17 366,17 366,17 366,17 367,17 367,17 366,17 365,17 365,17 364,17 364,17 364,17 364,17 364,17 364,17 364,17 364,18 364,18 363,18 363,18 363,18 364,18 364,18 364,18 364,19 364,18 364,18 365,18 364,19 364,20 364,19 365,19 365,19 365,20 366,20 366,20 365,20 365,21 365,21 365,21 365,21 364,21 364,21 364,21 364,21 364,21 364,22 363,22 363,22 363,22 363,22 364,22 363,22 364,23 364,23 365,23 364,23 364,24 363,24 363,24 363,24 364,25 363,25 363,25 362,25 362,25 362,26 362,27 362,27 361,27 361,27 362,27 362,27 362,28 361,28 362,28 362,29 362,29 361,29 361,29 361,28 361,29 360,29 360,28 361,28 361,28 360,28 359,28 359,28 358,27 359,27 359,26 359,26 359,26 360,26 360,26 360,26 359,26 359,26 359,25 360,25 360,25 360,24 361,24 361,22 361,22 362,21 362,21 361,20 361,20 361,20 361,20 361,20 361,20 362,19 361,19 361,19 361,20 360,20 360,19 360,19 361,18 361,18 361,18 362,18 362,18 361,18 361,18 360,19 359,18 359,18 358,17 357,17 357,17 358,18 358,18 359,18 359,19 359,19 358,19 358,19 358,19 358,19 358,19 357,20 357,19 357,19 357,20 357,20 356,20 356,20 355,20 355,20 354,19 354,19 354,19 354,19 354,19 355,19 355,18 356,18 355,18 355,18 355,18 354,18 354,18 354,19 354,18 353,18 353,18 352,18 351,18 351,18 351,18 351,18 351,18 351,18 350,18 350,18 350,17 349,16 349,16 350,16 350,16 351,16 351,16 352,16 352,16 353,16 353,16 353,16 353,16 354,16 354,16 354,16 354,16 355,15 356,16 356,17 356,17 356,16 356,16 356,16 356,16 356,16 357,16 356,16 356,15 357,15 358,15 358,16 359,16 359,16 360,16 359,15 359,15 360,15 360,15 360,15 360,14 360,14 362,14 361,14 360,14 360,14 359,13 359,13 358,14 358,14 358,13 358,13 358,13 358,13 358,12 357,12 357,12 357,12 357,12 357,11 356,10 356,11 356,11 355,11 355,11 355,11 355,11 355,11 355,11 354,11 354,11 353,10 353,11 353,11 352,11 352,11 352,10 352,10 352,10 353,10 353,10 353,10 353,9 353,9 353,9 354,9 354,8 354,8 355,9 355,9 356,10 357,10 358,10 358,10 357,10 357,10 356,9 356,9 356,9 355,9 356,9 356,8 356,8 356,8 357,8 357,8 357,8 357,7 357,7 357,7 357,7 358,7 359,7 359,7 360,7 360,7 360,7 360,7 360,7 361,6 361,7 361,7 361,7 361,7 361,7 361,8 360,8 361,8 360,9 360,9 360,9 360,9 360,9 360,9 360,9 360,9 360,9 360,10 360,10 360,11 360,11 360,10 360,10 361,10 361,10 360,11 360,11 360,11 360,11 360,11 359,13 359,13 359,13 359,13 359,13 360,13 360,13 360,12 361,12 363,12 361,11 361,11 361,11 361,11 362,11 362,11 362,11 363,10 363,10 363,10 364,10 364,11 364,11 364,11 364,11 365,11 365,12 365,12 365,12 365,12 365,12 364,12 364,12 363,12 363,13 363,13 363,13 363,13 364,13 364,13 364,13 364,13 365,13 365,13 365,13 365,13 365,13 365,13 366,13 366,13 366,13 366,13 366,12 366,12 366,12 366,12 367,13" style="fill:gray;stroke:white;stroke-width:2"/><polygon fill-opacity="0.8" fill="#3498DB" stroke="#000000" stroke-width="1"  points="370,4 369,5 369,5 370,6 370,6 370,6 369,6 368,5 368,5 368,6 368,6 369,7 369,7 368,7 368,7 367,7 367,7 368,7 368,7 369,7 369,7 369,8 369,8 369,8 369,8 369,9 368,9 369,9 369,9 369,10 369,10 368,10 368,10 367,10 367,10 367,10 366,10 366,10 366,10 367,10 367,10 366,10 365,10 364,9 364,6 364,6 365,6 365,6 365,6 366,7 366,7 366,7 366,7 366,6 366,5 366,5 366,5 366,5 366,5 366,4 366,4 366,4 366,4 367,3 367,3 367,4 368,3 368,3 370,3 370,4 370,4 369,4 369,4 369,4 370,4 370,4" style="fill:gray;stroke:white;stroke-width:2"/><polygon fill-opacity="0.8" fill="#3498DB" stroke="#000000" stroke-width="1"  points="372,5 371,5 371,5 370,5 370,4 371,4 370,4 370,4 371,4 371,4 371,3 371,3 371,3 372,2 371,2 371,2 371,1 372,1 372,1 373,1 373,0 373,0 373,0 373,0 374,1 373,1 373,1 373,1 373,2 373,2 373,2 373,1 374,1 374,0 375,0 375,0 375,0 375,0 376,0 376,0 376,1 376,1 376,1 376,1 376,1 376,1 376,2 375,2 375,2 375,2 375,3 375,3 375,3 375,3 375,3 375,3 374,4 374,4 374,4 374,4 375,5 374,5 374,5 374,5 373,5 373,5 373,5 372,5" style="fill:gray;stroke:white;stroke-width:2"/><polygon fill-opacity="0.8" fill="#3498DB" stroke="#000000" stroke-width="1"  points="215,318 215,318 216,318 215,318 215,318 215,318 215,318 215,318" style="fill:gray;stroke:white;stroke-width:2"/><polygon fill-opacity="0.8" fill="#3498DB" stroke="#000000" stroke-width="1"  points="214,317 214,317 214,317 214,317 214,317 214,317 214,317 214,317 214,317 214,317" style="fill:gray;stroke:white;stroke-width:2"/><polygon fill-opacity="0.8" fill="#3498DB" stroke="#000000" stroke-width="1"  points="263,281 263,281 263,282 263,282 262,282 262,281 262,281 263,281 263,281 263,281" style="fill:gray;stroke:white;stroke-width:2"/><polygon fill-opacity="0.8" fill="#3498DB" stroke="#000000" stroke-width="1"  points="0,95 0,95 0,95 0,95 0,95 0,95 0,95 0,95 0,95" style="fill:gray;stroke:white;stroke-width:2"/><polygon fill-opacity="0.8" fill="#3498DB" stroke="#000000" stroke-width="1"  points="360,22 360,22 360,22 360,22 360,23 360,23 360,23 359,23 360,23 360,23 360,23 360,22 360,23 360,23 359,23 359,23 359,23 359,23 359,23 359,22 360,22 359,22 359,22 359,22 360,21 360,21 360,21 360,22 360,22 360,22 360,22" style="fill:gray;stroke:white;stroke-width:2"/><polygon fill-opacity="0.8" fill="#3498DB" stroke="#000000" stroke-width="1"  points="339,20 339,20 339,21 338,21 338,21 337,21 337,21 337,20 337,20 338,20 338,20 339,20" style="fill:gray;stroke:white;stroke-width:2"/><polygon fill-opacity="0.8" fill="#3498DB" stroke="#000000" stroke-width="1"  points="368,20 368,20 368,20 368,20 368,21 367,21 367,22 367,22 366,21 366,21 366,20 365,20 365,19 366,19 367,20 367,19 367,19 367,19 367,19 367,20 367,20 368,20" style="fill:gray;stroke:white;stroke-width:2"/><polygon fill-opacity="0.8" fill="#3498DB" stroke="#000000" stroke-width="1"  points="372,13 372,13 372,14 372,14 371,14 371,14 370,15 369,15 368,15 369,15 369,15 369,14 369,14 369,14 369,14 370,14 370,14 370,14 371,14 372,13 372,13" style="fill:gray;stroke:white;stroke-width:2"/><text x="206" y="184" text-anchor="middle" fill="black" style="font-size:6"></text><text x="292" y="184" text-anchor="middle" fill="black" style="font-size:6"></text><text x="216" y="101" text-anchor="middle" fill="black" style="font-size:6"></text><text x="204" y="81" text-anchor="middle" fill="black" style="font-size:6"></text><text x="360" y="16" text-anchor="middle" fill="black" style="font-size:6"></text></svg>